<svg xmlns="http://www.w3.org/2000/svg" xmlns:xlink="http://www.w3.org/1999/xlink" width="1080" zoomAndPan="magnify" viewBox="0 0 810 809.999993" height="1080" preserveAspectRatio="xMidYMid meet" version="1.0"><defs><clipPath id="66967ff62d"><path d="M 191 169 L 619 169 L 619 641.476562 L 191 641.476562 Z M 191 169 " clip-rule="nonzero"/></clipPath></defs><rect x="-81" width="972" fill="#D4714F" y="-80.999999" height="971.999992" fill-opacity="1"/><g clip-path="url(#66967ff62d)"><path fill="#ffffff" d="M 453.847656 456.066406 L 457.015625 456.035156 C 481.410156 455.765625 508.398438 476.039062 508.792969 496.417969 C 509.179688 516.5625 483.203125 536.804688 468.0625 536.964844 C 468.0625 536.964844 436.46875 537.421875 428.609375 537.808594 C 426.988281 537.890625 425.367188 537.949219 423.75 537.964844 L 335.371094 538.933594 C 322.78125 539.058594 312.425781 548.960938 312.035156 561.132812 C 311.636719 573.6875 322.402344 583.855469 335.332031 583.722656 L 394.171875 583.117188 C 397.796875 583.074219 400.699219 585.894531 400.671875 589.414062 C 400.667969 589.472656 400.667969 589.527344 400.667969 589.582031 C 400.640625 593.394531 397.417969 596.519531 393.496094 596.558594 L 366.746094 596.835938 C 354.15625 596.964844 343.800781 606.863281 343.414062 619.035156 C 343.011719 631.59375 353.777344 641.757812 366.710938 641.625 L 480.921875 640.449219 C 482.695312 640.433594 484.425781 640.214844 486.085938 639.828125 C 523.738281 636.890625 555.769531 622.734375 579.285156 598.492188 C 604.378906 572.621094 617.910156 537.289062 618.414062 496.332031 L 618.425781 495.632812 C 618.933594 454.589844 606.1875 419.207031 581.550781 393.316406 C 555.679688 366.125 519.019531 351.988281 475.535156 352.441406 L 456.636719 352.632812 C 455.023438 352.648438 453.421875 352.746094 451.84375 352.898438 L 348.992188 353.84375 C 344.355469 353.726562 341.136719 353.652344 341.136719 353.652344 C 326 353.363281 300.203125 332.882812 300.773438 312.742188 C 301.347656 292.367188 328.519531 272.335938 352.910156 272.824219 L 373.953125 273.230469 C 374.785156 273.246094 375.613281 273.242188 376.433594 273.214844 C 378.367188 273.164062 380.308594 273.125 382.261719 273.160156 L 446.453125 274.328125 L 468.9375 274.761719 L 500.308594 275.367188 C 513.234375 275.617188 524.09375 265.550781 523.804688 252.992188 C 523.53125 240.816406 513.261719 230.820312 500.675781 230.582031 L 468.785156 229.964844 L 458.019531 229.753906 C 454.359375 229.683594 451.390625 226.742188 451.378906 223.191406 L 451.378906 223.011719 C 451.367188 219.242188 454.507812 216.25 458.398438 216.324219 L 480.480469 216.75 C 493.40625 217 504.269531 206.933594 503.980469 194.375 C 503.703125 182.199219 493.441406 172.207031 480.847656 171.960938 L 359.011719 169.742188 C 357.433594 169.574219 355.835938 169.460938 354.21875 169.433594 L 335.324219 169.066406 C 291.84375 168.222656 255.0625 182.027344 228.945312 208.984375 C 204.078125 234.652344 191.007812 269.917969 191.148438 310.964844 L 191.148438 311.664062 C 191.289062 352.625 204.5 388.074219 229.359375 414.167969 C 246.546875 432.214844 268.421875 444.785156 293.816406 451.464844 M 276.851562 539.535156 L 259.527344 539.710938 C 246.789062 539.84375 236.335938 549.980469 236.183594 562.347656 C 236.03125 574.71875 246.230469 584.640625 258.96875 584.507812 L 276.296875 584.328125 C 289.035156 584.195312 299.484375 574.0625 299.636719 561.695312 C 299.792969 549.320312 289.589844 539.398438 276.851562 539.535156 Z M 513.296875 194.988281 C 513.257812 182.617188 523.550781 172.785156 536.285156 173.035156 L 553.609375 173.367188 C 566.34375 173.609375 576.703125 183.84375 576.746094 196.210938 C 576.785156 208.582031 566.496094 218.414062 553.757812 218.167969 L 536.4375 217.832031 C 523.703125 217.585938 513.34375 207.359375 513.296875 194.988281 " fill-opacity="1" fill-rule="nonzero"/></g></svg>