<?xml version="1.0" encoding="iso-8859-1"?>
<!-- Uploaded to: SVG Repo, www.svgrepo.com, Generator: SVG Repo Mixer Tools -->
<svg fill="#000000" height="800px" width="800px" version="1.1" id="Layer_1" xmlns="http://www.w3.org/2000/svg" xmlns:xlink="http://www.w3.org/1999/xlink" 
	 viewBox="0 0 501.057 501.057" xml:space="preserve">
<g>
	<g>
		<g>
			<path d="M485.051,295.44L218.694,29.082c-2.021-2.02-4.817-3.075-7.658-2.912L95.044,32.994
				c-2.809-4.522-6.127-8.728-9.953-12.554c-3.905-3.905-10.236-3.905-14.142,0c-3.854,3.853-3.898,10.065-0.147,13.981
				l-37.837,2.226c-5.061,0.298-9.099,4.335-9.396,9.396L13.095,224.112c-0.168,2.852,0.892,5.639,2.911,7.659l266.357,266.357
				c1.953,1.953,4.512,2.929,7.071,2.929s5.118-0.976,7.071-2.929l188.546-188.546C488.957,305.677,488.957,299.345,485.051,295.44z
				 M102.382,90.646c1.752,2.823,2.706,6.074,2.706,9.478c0,4.819-1.877,9.349-5.284,12.756c-3.407,3.407-7.938,5.284-12.756,5.284
				c-0.331,0-0.657-0.03-0.985-0.048C93.716,110.154,99.215,100.733,102.382,90.646z M289.435,476.914L33.324,220.804L43.013,56.09
				l39.871-2.345c0.945,2.772,1.634,5.589,2.076,8.421c-9.034,0.492-17.924,4.176-24.81,11.061
				c-14.831,14.832-14.831,38.965,0,53.797c7.416,7.416,17.157,11.124,26.898,11.124s19.482-3.708,26.898-11.124
				c14.831-14.832,14.831-38.965,0-53.797c-2.568-2.568-5.42-4.681-8.449-6.359c-0.205-4.792-0.903-9.591-2.117-14.328l104.347-6.14
				l256.11,256.111L289.435,476.914z M83.938,82.374c-2.191,8.367-6.574,16.195-12.99,22.611c-0.337,0.337-0.634,0.698-0.913,1.068
				c-2.194-6.329-0.789-13.639,4.257-18.685C77.016,84.644,80.403,82.988,83.938,82.374z"/>
			<path d="M30.848,20.24c4.782-0.469,9.599-0.25,14.315,0.653c0.635,0.122,1.268,0.18,1.891,0.18c4.702,0,8.895-3.333,9.811-8.122
				c1.039-5.424-2.517-10.664-7.941-11.702c-6.598-1.263-13.336-1.57-20.03-0.914c-5.496,0.54-9.515,5.433-8.975,10.93
				C20.459,16.762,25.358,20.785,30.848,20.24z"/>
			<path d="M203.56,298.095c-7.038-7.038-11.916-15.486-14.773-23.518c-1.463-4.113-6.143-6.067-10.09-4.202l-1.929,0.912
				c-3.359,1.587-5.046,5.434-3.861,8.955c2.975,8.842,9.029,18.826,16.699,26.764l-11.77,11.77c-2.879,2.879-2.879,7.546,0,10.425
				l0.167,0.167c2.879,2.879,7.546,2.879,10.425,0l12.274-12.274c20.177,14.461,41.868,11.266,55.151-2.017
				c14.965-14.965,14.965-32.451,4.708-56.832c-8.575-20.682-10.425-31.274-1.681-40.018c6.726-6.726,19.336-9.585,32.283,3.363
				c7.019,7.019,10.819,13.967,13.033,19.49c1.572,3.921,6.047,5.786,9.899,4.05l1.805-0.813c3.569-1.608,5.298-5.739,3.851-9.376
				c-2.514-6.319-6.676-13.478-13.791-21.085l11.097-11.097c2.879-2.879,2.879-7.546,0-10.425c-2.879-2.879-7.546-2.879-10.425,0
				l-11.77,11.77c-17.991-12.947-38.505-12.274-52.46,1.681c-14.628,14.628-11.77,32.956-1.345,56.832
				c7.398,17.487,8.239,29.761-1.009,39.009C230.463,311.21,215.499,310.034,203.56,298.095z"/>
		</g>
	</g>
</g>
</svg>