<svg width="123" height="41" viewBox="0 0 123 41" fill="none" xmlns="http://www.w3.org/2000/svg">
<path d="M1.25295 20.7118C15.9148 31.4114 32.7038 39.3199 51.0597 40.3754C64.4402 41.14 77.6961 37.7262 89.5239 31.5109C98.0161 27.0505 105.727 21.0925 112.513 14.3255C114.102 12.7423 115.679 11.1015 117.172 9.39545C115.807 15.4751 114.42 21.5641 113.407 27.6908C113.04 29.9161 116.472 30.6356 116.841 28.393C118.251 19.8594 120.392 11.3896 122.184 2.92603C122.475 1.56451 121.191 0.596931 119.939 0.904204C111.215 3.03484 102.489 5.16652 93.7616 7.30098C91.5557 7.83931 92.6372 11.1749 94.8206 10.6424C101.869 8.92026 108.913 7.19836 115.963 5.47435C107.387 16.3734 95.2497 25.4005 82.8002 30.9038C71.9288 35.7085 60.0008 37.7968 48.176 36.6611C31.8381 35.0902 16.6999 27.6559 3.60702 18.0974C1.80038 16.7821 -0.569003 19.3811 1.25295 20.7118Z" fill="white"/>
</svg>
