<svg width="156" height="162" viewBox="0 0 156 162" fill="none" xmlns="http://www.w3.org/2000/svg">
<path d="M141.491 98.4574C137.974 117.389 129.439 127.766 117.204 133.449C104.913 139.157 88.8324 140.157 70.1584 140.157C51.6454 140.157 37.5283 132.461 28.0289 120.657C18.5201 108.841 13.6211 92.885 13.6211 76.3667C13.6215 57.8408 18.5237 43.9853 27.9887 34.7574C37.456 25.5273 51.5692 20.8477 70.1584 20.8477C88.7125 20.8477 108.874 27.8183 123.227 41.0056C137.561 54.1763 146.116 73.556 141.491 98.4574Z" stroke="white"/>
<path d="M40.3964 134.593C30.9412 133.39 24.4807 129.95 20.2578 124.972C16.0288 119.986 13.9938 113.399 13.5096 105.811C12.5399 90.6153 17.7997 71.599 23.7841 53.9822C29.7172 36.5161 41.5596 25.6631 55.8296 20.4832C70.1141 15.2982 86.8586 15.7899 102.568 21.0847C120.186 27.0234 131.791 36.0905 137.533 47.9793C143.276 59.8701 143.202 74.6854 137.245 92.2242C131.308 109.702 119.763 121.885 103.392 128.909C87.002 135.942 65.7457 137.816 40.3964 134.593Z" stroke="white"/>
</svg>
