<svg xmlns="http://www.w3.org/2000/svg" viewBox="0 0 500 500"><g id="freepik--background-complete--inject-64"><g><g><g><path d="M443.92,330.2h-180.75c-3.23,0-5.86-2.63-5.86-5.86V61.06c0-3.23,2.63-5.86,5.86-5.86h180.75c3.23,0,5.86,2.63,5.86,5.86V324.34c0,3.23-2.63,5.86-5.86,5.86ZM263.17,55.45c-3.09,0-5.61,2.52-5.61,5.61V324.34c0,3.09,2.52,5.61,5.61,5.61h180.75c3.09,0,5.61-2.52,5.61-5.61V61.06c0-3.09-2.52-5.61-5.61-5.61h-180.75Z" style="fill:#e0e0e0;"></path><path d="M235.49,330.2H54.75c-3.23,0-5.86-2.63-5.86-5.86V61.06c0-3.23,2.63-5.86,5.86-5.86H235.49c3.23,0,5.86,2.63,5.86,5.86V324.34c0,3.23-2.63,5.86-5.86,5.86ZM54.75,55.45c-3.09,0-5.61,2.52-5.61,5.61V324.34c0,3.09,2.52,5.61,5.61,5.61H235.49c3.09,0,5.61-2.52,5.61-5.61V61.06c0-3.09-2.52-5.61-5.61-5.61H54.75Z" style="fill:#e0e0e0;"></path></g><rect x="0" y="391.27" width="500" height=".25" style="fill:#e0e0e0;"></rect></g><rect x="51.67" y="405.53" width="16.06" height=".25" style="fill:#e0e0e0;"></rect><rect x="170.35" y="402.82" width="53.53" height=".25" style="fill:#e0e0e0;"></rect><rect x="68.73" y="414.82" width="36.25" height=".25" style="fill:#e0e0e0;"></rect><rect x="378.35" y="402.69" width="43.19" height=".25" style="fill:#e0e0e0;"></rect><rect x="430.45" y="402.69" width="6.33" height=".25" style="fill:#e0e0e0;"></rect><rect x="316.21" y="408.92" width="53.89" height=".25" style="fill:#e0e0e0;"></rect></g><path d="M190.41,200.78c-2.4,3.65-4.01,7.67-4.87,11.81l-6.59,.62v12.77l6.59,.62c.86,4.14,2.47,8.15,4.87,11.81l-4.21,5.09,9.03,9.03,5.09-4.21c3.65,2.4,7.67,4.01,11.81,4.87l.62,6.59h12.77l.62-6.59c4.14-.86,8.15-2.47,11.81-4.87l5.09,4.21,9.03-9.03-4.21-5.09c2.4-3.65,4.01-7.67,4.87-11.81l6.59-.62v-12.77l-6.59-.62c-.86-4.14-2.47-8.15-4.87-11.81l4.21-5.09-9.03-9.03-5.09,4.21c-3.65-2.4-7.67-4.01-11.81-4.87l-.62-6.59h-12.77l-.62,6.59c-4.14,.86-8.15,2.47-11.81,4.87l-5.09-4.21-9.03,9.03,4.21,5.09Zm40.94,6.59c6.75,6.75,6.75,17.7,0,24.45-6.75,6.75-17.7,6.75-24.45,0-6.75-6.75-6.75-17.7,0-24.45,6.75-6.75,17.7-6.75,24.45,0Z" style="fill:#ebebeb;"></path><path d="M140.08,168.7c-1.44,2.19-2.41,4.61-2.93,7.09l-3.96,.37v7.67l3.96,.37c.52,2.49,1.49,4.9,2.93,7.09l-2.53,3.06,5.42,5.42,3.06-2.53c2.19,1.44,4.61,2.41,7.09,2.93l.37,3.96h7.67l.37-3.96c2.49-.52,4.9-1.49,7.09-2.93l3.06,2.53,5.42-5.42-2.53-3.06c1.44-2.19,2.41-4.61,2.93-7.09l3.96-.37v-7.67l-3.96-.37c-.52-2.49-1.49-4.9-2.93-7.09l2.53-3.06-5.42-5.42-3.06,2.53c-2.2-1.44-4.61-2.41-7.09-2.93l-.37-3.96h-7.67l-.37,3.96c-2.49,.52-4.9,1.49-7.09,2.93l-3.06-2.53-5.42,5.42,2.53,3.06Zm24.59,3.96c4.05,4.05,4.05,10.63,0,14.68-4.05,4.05-10.63,4.05-14.68,0s-4.05-10.63,0-14.68c4.05-4.05,10.63-4.05,14.68,0Z" style="fill:#f5f5f5;"></path><path d="M327.19,348.06c-1.44,2.19-2.41,4.61-2.93,7.09l-3.96,.37v7.67l3.96,.37c.52,2.49,1.49,4.9,2.93,7.09l-2.53,3.06,5.42,5.42,3.06-2.53c2.19,1.44,4.61,2.41,7.09,2.93l.37,3.96h7.67l.37-3.96c2.49-.52,4.9-1.49,7.09-2.93l3.06,2.53,5.42-5.42-2.53-3.06c1.44-2.19,2.41-4.61,2.93-7.09l3.96-.37v-7.67l-3.96-.37c-.52-2.49-1.49-4.9-2.93-7.09l2.53-3.06-5.42-5.42-3.06,2.53c-2.2-1.44-4.61-2.41-7.09-2.93l-.37-3.96h-7.67l-.37,3.96c-2.49,.52-4.9,1.49-7.09,2.93l-3.06-2.53-5.42,5.42,2.53,3.06Zm24.59,3.96c4.05,4.05,4.05,10.63,0,14.68-4.05,4.05-10.63,4.05-14.68,0-4.05-4.05-4.05-10.63,0-14.68,4.05-4.05,10.63-4.05,14.68,0Z" style="fill:#f5f5f5;"></path><path d="M51.82,262.75c-1.15,1.75-1.92,3.67-2.33,5.66l-3.16,.3v6.12l3.16,.3c.41,1.98,1.18,3.9,2.33,5.65l-2.02,2.44,4.32,4.32,2.44-2.02c1.75,1.15,3.67,1.92,5.65,2.33l.3,3.16h6.12l.3-3.16c1.98-.41,3.9-1.18,5.65-2.33l2.44,2.02,4.32-4.32-2.02-2.44c1.15-1.75,1.92-3.67,2.33-5.65l3.16-.3v-6.12l-3.16-.3c-.41-1.98-1.18-3.9-2.33-5.65l2.02-2.44-4.32-4.32-2.44,2.02c-1.75-1.15-3.67-1.92-5.65-2.33l-.3-3.16h-6.12l-.3,3.16c-1.98,.41-3.9,1.18-5.65,2.33l-2.44-2.02-4.32,4.32,2.02,2.44Zm19.61,3.16c3.23,3.23,3.23,8.47,0,11.71-3.23,3.23-8.48,3.23-11.71,0-3.23-3.23-3.23-8.47,0-11.71,3.23-3.23,8.47-3.23,11.71,0Z" style="fill:#f5f5f5;"></path><path d="M51.9,371.47c-1.15,1.75-1.92,3.67-2.33,5.65l-3.16,.3v6.12l3.16,.3c.41,1.98,1.18,3.9,2.33,5.65l-2.02,2.44,4.32,4.32,2.44-2.02c1.75,1.15,3.67,1.92,5.65,2.33l.3,3.16h6.12l.3-3.16c1.98-.41,3.9-1.18,5.65-2.33l2.44,2.02,4.32-4.32-2.02-2.44c1.15-1.75,1.92-3.67,2.33-5.65l3.16-.3v-6.12l-3.16-.3c-.41-1.98-1.18-3.9-2.33-5.65l2.02-2.44-4.32-4.32-2.44,2.02c-1.75-1.15-3.67-1.92-5.65-2.33l-.3-3.16h-6.12l-.3,3.16c-1.98,.41-3.9,1.18-5.65,2.33l-2.44-2.02-4.32,4.32,2.02,2.44Zm19.61,3.16c3.23,3.23,3.23,8.47,0,11.71-3.23,3.23-8.48,3.23-11.71,0s-3.23-8.47,0-11.71c3.23-3.23,8.47-3.23,11.71,0Z" style="fill:#f5f5f5;"></path><path d="M376.58,231.79c-1.44,2.19-2.41,4.61-2.93,7.09l-3.96,.37v7.67l3.96,.37c.52,2.49,1.49,4.9,2.93,7.09l-2.53,3.06,5.42,5.42,3.06-2.53c2.19,1.44,4.61,2.41,7.09,2.93l.37,3.96h7.67l.37-3.96c2.49-.52,4.9-1.49,7.09-2.93l3.06,2.53,5.42-5.42-2.53-3.06c1.44-2.19,2.41-4.61,2.93-7.09l3.96-.37v-7.67l-3.96-.37c-.52-2.49-1.49-4.9-2.93-7.09l2.53-3.06-5.42-5.42-3.06,2.53c-2.2-1.44-4.61-2.41-7.09-2.93l-.37-3.96h-7.67l-.37,3.96c-2.49,.52-4.9,1.49-7.09,2.93l-3.06-2.53-5.42,5.42,2.53,3.06Zm24.59,3.96c4.05,4.05,4.05,10.63,0,14.68-4.05,4.05-10.63,4.05-14.68,0-4.05-4.05-4.05-10.63,0-14.68,4.05-4.05,10.63-4.05,14.68,0Z" style="fill:#f5f5f5;"></path><path d="M122.66,219.4c-1.44,2.19-2.41,4.61-2.93,7.09l-3.96,.37v7.67l3.96,.37c.52,2.49,1.49,4.9,2.93,7.09l-2.53,3.06,5.42,5.42,3.06-2.53c2.19,1.44,4.61,2.41,7.09,2.93l.37,3.96h7.67l.37-3.96c2.49-.52,4.9-1.49,7.09-2.93l3.06,2.53,5.42-5.42-2.53-3.06c1.44-2.19,2.41-4.61,2.93-7.09l3.96-.37v-7.67l-3.96-.37c-.52-2.49-1.49-4.9-2.93-7.09l2.53-3.06-5.42-5.42-3.06,2.53c-2.2-1.44-4.61-2.41-7.09-2.93l-.37-3.96h-7.67l-.37,3.96c-2.49,.52-4.9,1.49-7.09,2.93l-3.06-2.53-5.42,5.42,2.53,3.06Zm24.59,3.96c4.05,4.05,4.05,10.63,0,14.68-4.05,4.05-10.63,4.05-14.68,0-4.05-4.05-4.05-10.63,0-14.68,4.05-4.05,10.63-4.05,14.68,0Z" style="fill:#ebebeb;"></path><path d="M67.26,318.65c-1.44,2.19-2.41,4.61-2.93,7.09l-3.96,.37v7.67l3.96,.37c.52,2.49,1.49,4.9,2.93,7.09l-2.53,3.06,5.42,5.42,3.06-2.53c2.2,1.44,4.61,2.41,7.09,2.93l.37,3.96h7.67l.37-3.96c2.49-.52,4.9-1.49,7.09-2.93l3.06,2.53,5.42-5.42-2.53-3.06c1.44-2.19,2.41-4.61,2.93-7.09l3.96-.37v-7.67l-3.96-.37c-.52-2.49-1.49-4.9-2.93-7.09l2.53-3.06-5.42-5.42-3.06,2.53c-2.2-1.44-4.61-2.41-7.09-2.93l-.37-3.96h-7.67l-.37,3.96c-2.49,.52-4.9,1.49-7.09,2.93l-3.06-2.53-5.42,5.42,2.53,3.06Zm24.59,3.96c4.05,4.05,4.05,10.63,0,14.68-4.05,4.05-10.63,4.05-14.68,0s-4.05-10.63,0-14.68c4.05-4.05,10.63-4.05,14.68,0Z" style="fill:#ebebeb;"></path><path d="M298.29,267.54c-2.25,3.42-3.76,7.19-4.57,11.06l-6.18,.58v11.97l6.18,.58c.8,3.88,2.32,7.64,4.57,11.06l-3.95,4.77,8.46,8.46,4.77-3.95c3.42,2.25,7.19,3.76,11.06,4.57l.58,6.18h11.97l.58-6.18c3.88-.81,7.64-2.32,11.06-4.57l4.77,3.95,8.46-8.46-3.95-4.77c2.25-3.42,3.76-7.19,4.57-11.06l6.18-.58v-11.97l-6.18-.58c-.81-3.88-2.32-7.64-4.57-11.06l3.95-4.77-8.46-8.46-4.77,3.95c-3.42-2.25-7.19-3.76-11.06-4.57l-.58-6.18h-11.97l-.58,6.18c-3.88,.81-7.64,2.32-11.06,4.57l-4.77-3.95-8.46,8.46,3.95,4.77Zm38.37,6.18c6.33,6.33,6.33,16.58,0,22.91-6.33,6.33-16.58,6.33-22.91,0s-6.33-16.58,0-22.91c6.33-6.33,16.58-6.33,22.91,0Z" style="fill:#ebebeb;"></path><g><g><circle cx="242.39" cy="70.61" r="34.6" transform="translate(4.37 154.79) rotate(-35.72)" style="fill:#e0e0e0;"></circle><circle cx="239.82" cy="70.18" r="34.6" transform="translate(20.61 190.13) rotate(-45)" style="fill:#f0f0f0;"></circle><circle cx="239.82" cy="70.18" r="28.75" transform="translate(-9.66 56.06) rotate(-13.07)" style="fill:#fff;"></circle><path d="M240.81,94.79l-.28-6.82c.14,0,.27-.01,.4-.02l.45,6.81c-.19,.01-.38,.02-.57,.03Zm-11.03-2.12c-.17-.08-.35-.16-.52-.24l2.94-6.16c.12,.06,.24,.11,.37,.17l-2.79,6.23Zm22.35-1.15l-3.42-5.91,.37-.22,3.53,5.84c-.16,.1-.32,.19-.48,.28Zm-31.65-6.08c-.12-.15-.23-.3-.35-.45l5.46-4.1,.25,.33-5.36,4.22Zm40.14-2.08l-5.77-3.64,.22-.35,5.9,3.43-.09,.15c-.06,.1-.16,.26-.26,.42Zm-45.01-8.65c-.04-.19-.07-.37-.1-.56l6.74-1.11c.02,.13,.05,.27,.07,.4l-6.71,1.27Zm41.95-3.15c.01-.13,.02-.26,.03-.39l6.82,.37c-.01,.2-.02,.39-.04,.59l-6.8-.57Zm-34.77-6.61l-6.52-2.02,.17-.52,6.48,2.13-.13,.41Zm33.38-1.78l-.17-.38,6.22-2.81c.08,.17,.15,.34,.23,.51l-6.28,2.68Zm-28.99-5.53l-4.85-4.8c.13-.13,.26-.26,.39-.39l4.76,4.89-.3,.3Zm23.87-1.26c-.1-.08-.21-.17-.31-.25l4.17-5.4c.15,.12,.3,.24,.45,.36l-4.31,5.29Zm-16.59-3.16l-2.06-6.51c.19-.06,.37-.12,.56-.17l1.87,6.56c-.13,.04-.25,.07-.37,.11Zm8.9-.48l-.4-.08,1.2-6.72c.19,.03,.37,.07,.56,.11l-1.36,6.69Z" style="fill:#e6e6e6;"></path></g><g><path d="M240.23,71.51c-.06,0-.13-.01-.19-.04l-12.57-5.14c-.26-.1-.38-.4-.27-.65,.1-.26,.4-.38,.65-.27l11.99,4.9,2.43-14.66c.04-.27,.3-.46,.58-.41,.27,.04,.46,.3,.41,.58l-2.53,15.28c-.02,.15-.12,.28-.25,.35-.08,.04-.16,.06-.24,.06Z" style="fill:#e0e0e0;"></path><path d="M242.11,70.55c-.1,1.18-1.14,2.06-2.32,1.96-1.18-.1-2.06-1.14-1.96-2.32,.1-1.18,1.14-2.06,2.32-1.96,1.18,.1,2.06,1.14,1.96,2.32Z" style="fill:#e0e0e0;"></path></g></g><g><g><circle cx="99.71" cy="135.51" r="26.16" transform="translate(-42.9 46.25) rotate(-21.61)" style="fill:#e0e0e0;"></circle><circle cx="97.91" cy="134.71" r="26.16" transform="translate(-65.04 100.38) rotate(-42.09)" style="fill:#f0f0f0;"></circle><circle cx="97.91" cy="134.71" r="21.73" transform="translate(-67.59 116.23) rotate(-47.62)" style="fill:#fff;"></circle><path d="M93.98,152.9l1.08-5.04c.1,.02,.2,.04,.3,.06l-.96,5.07c-.14-.03-.28-.06-.42-.09Zm-7.67-3.64c-.11-.09-.22-.18-.34-.28l3.32-3.95c.08,.07,.16,.13,.24,.19l-3.22,4.03Zm16.58,3.38l-1.39-4.97,.31-.09,1.48,4.94c-.13,.04-.27,.08-.4,.12Zm-22.01-10.44c-.06-.13-.11-.26-.17-.39l4.77-1.97,.12,.29-4.72,2.08Zm29.77,6.08l-3.53-3.76,.23-.22,3.67,3.62-.09,.09c-.06,.06-.17,.16-.27,.26Zm-31.3-14.84c0-.14,.02-.29,.03-.43l5.14,.46c0,.1-.02,.2-.02,.31l-5.15-.34Zm31.3,5.63c.03-.09,.06-.18,.09-.28l4.92,1.56c-.04,.14-.09,.28-.14,.42l-4.87-1.7Zm-24.19-11.41l-4.39-2.71,.22-.35,4.34,2.79-.17,.27Zm24.77,5.01l-.05-.31,5.08-.88c.02,.14,.05,.28,.07,.42l-5.1,.77Zm-20.17-9.53l-2.64-4.43c.12-.07,.24-.14,.36-.21l2.56,4.48-.28,.16Zm17.71,3.59c-.06-.08-.12-.16-.18-.24l4.08-3.16c.09,.12,.18,.23,.26,.35l-4.16,3.06Zm-11.55-5.46l-.27-5.15c.15,0,.29-.01,.44-.02l.13,5.16c-.1,0-.2,0-.3,.01Zm6.6,1.33l-.28-.13,2.15-4.69c.13,.06,.26,.12,.39,.18l-2.26,4.64Z" style="fill:#e6e6e6;"></path></g><g><path d="M98.05,135.89c-.11,0-.21-.03-.3-.1l-8.23-6.14c-.22-.17-.27-.48-.1-.7,.16-.22,.48-.27,.7-.1l7.73,5.77,4.49-10.13c.11-.25,.41-.37,.66-.25,.25,.11,.37,.41,.25,.66l-4.74,10.7c-.06,.14-.18,.24-.33,.28-.04,.01-.08,.02-.13,.02Z" style="fill:#e0e0e0;"></path><path d="M99.52,135.41c-.3,.85-1.22,1.29-2.07,.99s-1.29-1.22-.99-2.07c.3-.85,1.22-1.29,2.07-.99s1.29,1.22,.99,2.07Z" style="fill:#e0e0e0;"></path></g></g><g><g><circle cx="434.53" cy="322.36" r="19.9" transform="translate(-103.63 266.55) rotate(-30.65)" style="fill:#e0e0e0;"></circle><circle cx="433.15" cy="321.75" r="19.9" transform="translate(-97.47 419.61) rotate(-47.05)" style="fill:#f0f0f0;"></circle><circle cx="433.15" cy="321.75" r="16.53" transform="translate(-42.16 577.12) rotate(-64.85)" style="fill:#fff;"></circle><path d="M430.16,335.59l.82-3.84c.08,.02,.15,.03,.23,.05l-.73,3.86c-.11-.02-.21-.04-.32-.07Zm-5.84-2.77c-.09-.07-.17-.14-.26-.21l2.52-3.01c.06,.05,.12,.1,.18,.15l-2.45,3.07Zm12.61,2.57l-1.05-3.78,.24-.07,1.12,3.76c-.1,.03-.2,.06-.31,.09Zm-16.74-7.94c-.04-.1-.09-.2-.13-.3l3.63-1.5,.09,.22-3.59,1.58Zm22.65,4.62l-2.69-2.86,.17-.16,2.79,2.76-.07,.07s-.13,.12-.2,.2Zm-23.81-11.29c0-.11,.02-.22,.03-.33l3.91,.35c0,.08-.01,.15-.02,.23l-3.92-.26Zm23.81,4.29c.02-.07,.05-.14,.07-.21l3.74,1.18c-.03,.11-.07,.21-.11,.32l-3.7-1.29Zm-18.4-8.68l-3.34-2.06,.17-.27,3.3,2.12-.13,.21Zm18.84,3.81l-.04-.24,3.87-.67c.02,.11,.04,.21,.05,.32l-3.88,.59Zm-15.35-7.25l-2.01-3.37c.09-.05,.18-.11,.27-.16l1.95,3.41-.21,.12Zm13.47,2.73c-.05-.06-.09-.12-.14-.18l3.1-2.41c.07,.09,.13,.18,.2,.27l-3.16,2.32Zm-8.78-4.15l-.21-3.92c.11,0,.22-.01,.34-.01l.1,3.92c-.07,0-.15,0-.22,0Zm5.02,1.02l-.21-.1,1.64-3.57c.1,.05,.2,.09,.29,.14l-1.72,3.53Z" style="fill:#e6e6e6;"></path></g><g><path d="M433.26,322.77c-.11,0-.21-.03-.3-.1l-6.26-4.67c-.22-.17-.27-.48-.1-.7,.16-.22,.48-.27,.7-.1l5.76,4.3,3.36-7.57c.11-.25,.41-.37,.66-.25,.25,.11,.37,.41,.25,.66l-3.61,8.14c-.06,.14-.18,.24-.33,.28-.04,.01-.08,.02-.13,.02Z" style="fill:#e0e0e0;"></path><path d="M434.38,322.28c-.23,.64-.93,.98-1.57,.76-.64-.23-.98-.93-.76-1.57s.93-.98,1.57-.76c.64,.23,.98,.93,.76,1.57Z" style="fill:#e0e0e0;"></path></g></g><g><g><circle cx="413.19" cy="156.72" r="26.64" transform="translate(72.66 438.37) rotate(-60.36)" style="fill:#e0e0e0;"></circle><circle cx="411.36" cy="155.91" r="26.64" transform="translate(231.7 557.46) rotate(-86.65)" style="fill:#f0f0f0;"></circle><circle cx="411.36" cy="155.91" r="22.13" transform="translate(-18.93 64.39) rotate(-8.75)" style="fill:#fff;"></circle><path d="M407.35,174.44l1.1-5.14c.1,.02,.2,.04,.31,.06l-.98,5.16c-.14-.03-.29-.06-.43-.09Zm-7.81-3.71c-.11-.09-.23-.18-.34-.28l3.38-4.02c.08,.07,.16,.13,.24,.2l-3.28,4.11Zm16.88,3.45l-1.41-5.06,.31-.09,1.51,5.03c-.14,.04-.27,.08-.41,.12Zm-22.42-10.63c-.06-.13-.12-.27-.17-.4l4.86-2.01,.12,.29-4.81,2.12Zm30.33,6.19l-3.6-3.83,.23-.22,3.74,3.69-.1,.09c-.06,.06-.17,.16-.27,.26Zm-31.89-15.12c0-.15,.02-.29,.03-.44l5.23,.47c0,.1-.02,.21-.02,.31l-5.24-.35Zm31.88,5.74c.03-.09,.06-.19,.09-.28l5.01,1.59c-.05,.14-.09,.29-.14,.43l-4.96-1.73Zm-24.64-11.62l-4.47-2.76,.22-.36,4.42,2.84-.18,.28Zm25.23,5.1l-.05-.32,5.18-.9c.02,.14,.05,.28,.07,.43l-5.2,.79Zm-20.55-9.71l-2.69-4.52c.12-.07,.24-.14,.37-.21l2.61,4.56-.28,.17Zm18.04,3.66c-.06-.08-.12-.16-.18-.24l4.15-3.22c.09,.12,.18,.24,.27,.36l-4.23,3.11Zm-11.76-5.56l-.28-5.25c.15,0,.3-.01,.45-.02l.13,5.25c-.1,0-.2,0-.3,.01Zm6.72,1.36l-.28-.13,2.19-4.78c.13,.06,.26,.12,.4,.19l-2.3,4.72Z" style="fill:#e6e6e6;"></path></g><g><path d="M411.5,157.1c-.11,0-.21-.03-.3-.1l-8.38-6.25c-.22-.17-.27-.48-.1-.7,.17-.22,.48-.27,.7-.1l7.88,5.88,4.58-10.33c.11-.25,.41-.37,.66-.25,.25,.11,.37,.41,.25,.66l-4.83,10.9c-.06,.14-.18,.24-.33,.28-.04,.01-.08,.02-.13,.02Z" style="fill:#e0e0e0;"></path><path d="M413,156.62c-.3,.86-1.25,1.31-2.11,1.01-.86-.3-1.31-1.25-1.01-2.11,.3-.86,1.25-1.31,2.11-1.01,.86,.3,1.31,1.25,1.01,2.11Z" style="fill:#e0e0e0;"></path></g></g></g><g id="freepik--Shadow--inject-64"><path d="M458.88,450.6c0,3.39-93.52,6.13-208.88,6.13s-208.88-2.75-208.88-6.13,93.52-6.13,208.88-6.13,208.88,2.75,208.88,6.13Z" style="fill:#f5f5f5;"></path></g><g id="freepik--Clocks_2--inject-64"><g><g><g><circle cx="411.87" cy="402.63" r="24.93" transform="translate(-141.06 563.92) rotate(-60.61)" style="fill:#407BFF;"></circle><circle cx="411.87" cy="402.63" r="24.93" transform="translate(-141.06 563.92) rotate(-60.61)" style="opacity:.3;"></circle><circle cx="410.02" cy="402.32" r="24.93" transform="translate(-83.52 108.39) rotate(-13.68)" style="fill:#407BFF;"></circle><circle cx="410.02" cy="402.32" r="20.71" style="fill:#fff;"></circle><path d="M410.73,420.05l-.2-4.91c.1,0,.19,0,.29-.02l.32,4.91c-.14,0-.27,.02-.41,.02Zm-7.95-1.53c-.13-.06-.25-.11-.38-.17l2.12-4.44c.09,.04,.18,.08,.26,.12l-2.01,4.49Zm16.1-.83l-2.46-4.26,.26-.16,2.54,4.21c-.11,.07-.23,.14-.34,.2Zm-22.8-4.38c-.08-.11-.17-.21-.25-.32l3.93-2.96,.18,.24-3.86,3.04Zm28.93-1.5l-4.16-2.63,.16-.25,4.25,2.47-.07,.11c-.04,.07-.11,.19-.19,.3Zm-32.43-6.23c-.03-.13-.05-.27-.07-.4l4.85-.8c.02,.1,.03,.19,.05,.29l-4.83,.91Zm30.23-2.27c0-.09,.01-.18,.02-.28l4.91,.26c0,.14-.02,.28-.03,.42l-4.9-.41Zm-25.05-4.76l-4.7-1.46,.12-.38,4.67,1.54-.09,.29Zm24.05-1.28l-.12-.27,4.48-2.02c.06,.12,.11,.25,.16,.37l-4.52,1.93Zm-20.89-3.99l-3.49-3.46c.09-.09,.19-.19,.28-.28l3.43,3.52-.22,.22Zm17.2-.91c-.07-.06-.15-.12-.22-.18l3.01-3.89c.11,.09,.22,.17,.33,.26l-3.11,3.81Zm-11.96-2.28l-1.48-4.69c.13-.04,.27-.08,.4-.12l1.35,4.73c-.09,.03-.18,.05-.27,.08Zm6.41-.34l-.29-.06,.87-4.84c.13,.02,.27,.05,.4,.08l-.98,4.82Z"></path></g><g><path d="M410.31,403.41c-.06,0-.13-.01-.19-.04l-9.06-3.7c-.26-.1-.38-.4-.27-.65s.4-.38,.65-.27l8.48,3.47,1.72-10.39c.04-.27,.3-.46,.58-.41,.27,.04,.46,.3,.41,.58l-1.83,11.01c-.02,.15-.12,.28-.25,.35-.08,.04-.16,.06-.24,.06Z"></path><path d="M411.67,402.58c-.07,.85-.82,1.48-1.67,1.41-.85-.07-1.48-.82-1.41-1.67s.82-1.48,1.67-1.41,1.48,.82,1.41,1.67Z"></path></g></g><rect x="391.82" y="440.19" width="55.71" height="6.3" style="fill:#407BFF;"></rect><rect x="389.59" y="427.45" width="55.71" height="6.3" style="fill:#407BFF;"></rect><rect x="394.91" y="433.84" width="55.71" height="6.35" style="fill:#407BFF;"></rect></g></g><g id="freepik--Clock_1--inject-64"><g><g><circle cx="104.35" cy="422.24" r="26.67" transform="translate(-326.32 361.36) rotate(-68.07)" style="fill:#263238;"></circle><circle cx="104.35" cy="422.24" r="26.67" transform="translate(-326.32 361.36) rotate(-68.07)" style="opacity:.3;"></circle><circle cx="102.36" cy="421.91" r="26.67" transform="translate(-211.86 122.33) rotate(-32.73)" style="fill:#263238;"></circle><circle cx="102.36" cy="421.91" r="22.16" transform="translate(-213.64 124.2) rotate(-33.07)" style="fill:#fff;"></circle><path d="M103.12,440.88l-.22-5.26c.1,0,.21,0,.31-.02l.34,5.25c-.15,0-.29,.02-.44,.02Zm-8.5-1.64c-.13-.06-.27-.12-.4-.19l2.27-4.75c.09,.04,.19,.09,.28,.13l-2.15,4.8Zm17.23-.89l-2.64-4.55,.28-.17,2.72,4.5c-.12,.07-.24,.15-.37,.22Zm-24.39-4.69c-.09-.11-.18-.23-.27-.35l4.2-3.16,.19,.25-4.13,3.26Zm30.94-1.6l-4.45-2.81,.17-.27,4.55,2.64-.07,.12c-.05,.08-.12,.2-.2,.32Zm-34.69-6.67c-.03-.14-.05-.29-.08-.43l5.19-.85c.02,.1,.03,.21,.05,.31l-5.17,.98Zm32.34-2.42c0-.1,.01-.2,.02-.3l5.25,.28c0,.15-.02,.3-.03,.45l-5.24-.44Zm-26.8-5.09l-5.02-1.56,.13-.4,5,1.65-.1,.31Zm25.73-1.37l-.13-.29,4.79-2.17c.06,.13,.12,.26,.17,.4l-4.84,2.06Zm-22.35-4.27l-3.74-3.7c.1-.1,.2-.2,.3-.3l3.67,3.77-.23,.23Zm18.4-.97c-.08-.06-.16-.13-.24-.19l3.22-4.16c.12,.09,.23,.18,.35,.28l-3.32,4.08Zm-12.79-2.44l-1.59-5.02c.14-.05,.29-.09,.43-.13l1.44,5.06c-.1,.03-.19,.06-.29,.09Zm6.86-.37l-.31-.06,.93-5.18c.14,.03,.29,.05,.43,.08l-1.05,5.16Z"></path></g><g><path d="M102.68,423.05c-.06,0-.13-.01-.19-.04l-9.69-3.96c-.26-.1-.38-.4-.27-.65,.1-.25,.4-.38,.65-.27l9.11,3.73,1.85-11.16c.04-.27,.3-.46,.58-.41,.27,.04,.46,.3,.41,.58l-1.95,11.78c-.02,.15-.12,.28-.25,.35-.08,.04-.16,.06-.24,.06Z"></path><path d="M104.13,422.19c-.08,.91-.88,1.59-1.79,1.51-.91-.08-1.59-.88-1.51-1.79s.88-1.59,1.79-1.51c.91,.08,1.59,.88,1.51,1.79Z"></path></g></g></g><g id="freepik--Piggy_bank--inject-64"><g><polygon points="292.11 446.52 287.94 392.85 252.68 423.75 263.95 446.52 292.11 446.52" style="fill:#407BFF;"></polygon><path d="M111.13,261.43s-17.48-30.01-11.98-33.96c5.5-3.95,22.07-5.34,41.85,8.2-5.74,12.52-16.65,21.92-29.87,25.76Z" style="fill:#407BFF;"></path><path d="M314.56,326.94c6.21,5.81,15.79,7.28,23.32,3.17,3.52-1.92,6.51-5.04,8.3-8.62,1.89-3.79,2.96-8.62,1.45-12.72-1.71-4.61-6.51-7.41-11.25-5.38-4.05,1.73-6.72,6.02-7.98,10.09-2.66,8.61,1.36,17.93,9.79,21.36,9.1,3.7,19.57-2.75,20.24-12.57,.11-1.62-1.46-3-3-3-1.72,0-2.89,1.38-3,3-.33,4.89-5.81,8.6-10.57,7.47-5.53-1.31-8.88-6.63-8.22-12.26,.31-2.62,1.56-5.54,3.54-7.48,1.76-1.73,3.7-1.85,4.72,.52s.18,5.71-.82,7.79c-1.15,2.39-2.87,4.48-4.99,5.89-5.28,3.5-12.55,2.94-17.28-1.49-2.82-2.64-7.07,1.6-4.24,4.24h0Z" style="fill:#407BFF;"></path><path d="M201.01,215.54c66.41,0,120.25,49.53,120.25,110.64s-53.84,110.64-120.25,110.64-112.42-49.53-112.42-110.64,46.01-110.64,112.42-110.64Z" style="fill:#407BFF;"></path><path d="M304.09,269.17s-7.72,23.87-6.28,36.49c2.12,18.45,12.54,66.59,12.54,66.59,0,0,8.88-12.62,9.89-29.35,1.01-16.73-11.23-66.75-11.23-66.75l-4.92-6.98Z" style="isolation:isolate; opacity:.2;"></path><path d="M211.25,436.39c3.59-.25,7.12-.66,10.6-1.23l-4.81-10.07-5.78,11.3Z" style="isolation:isolate; opacity:.1;"></path><polygon points="260.39 448.63 254.73 407.58 210.48 423.75 224.32 448.63 260.39 448.63" style="fill:#407BFF;"></polygon><polygon points="126.94 448.63 129.73 407.58 171.86 423.75 159.87 448.63 126.94 448.63" style="fill:#407BFF;"></polygon><path d="M272.8,256.78s17.22-34.79,10.6-38.02-25.81-1.85-47.24,15.9c13.13,20.74,36.64,22.12,36.64,22.12Z" style="fill:#407BFF;"></path><path d="M270.69,255.09s9.39-24.03,5.69-25.43c-3.7-1.4-16.41,4.23-28.16,17.77,7.34,12.01,22.47,7.66,22.47,7.66Z" style="isolation:isolate; opacity:.2;"></path><path d="M222.27,220.48c-7.46-1.43-17.35-3.1-30.18-.97-13.37,1.32-17.31,5.65-17.31,5.65h18.11c6.93-4.75,29.38-4.68,29.38-4.68Z" style="isolation:isolate; opacity:.4;"></path><g><path d="M123.58,306.03c-.5,6.33,2.36,11.95,6.38,12.55,4.02,.6,7.69-4.05,8.19-10.38,.5-6.33-2.35-11.95-6.38-12.56-4.02-.6-7.69,4.05-8.19,10.38Z" style="fill:#263238;"></path><path d="M121.86,293.46c.47,.05,.95-.08,1.31-.42,5.68-5.26,12.07-3.41,12.14-3.39,.95,.28,1.91-.26,2.12-1.23,.21-.97-.39-1.98-1.35-2.27-.33-.1-8.36-2.42-15.4,4.1-.7,.65-.72,1.8-.03,2.57,.33,.37,.76,.58,1.2,.63Z" style="fill:#263238;"></path></g><g><path d="M214.77,308.09c.5,6.33-2.36,11.95-6.38,12.55-4.02,.6-7.69-4.05-8.19-10.38-.5-6.33,2.35-11.95,6.38-12.56,4.02-.6,7.69,4.05,8.19,10.38Z" style="fill:#263238;"></path><path d="M216.5,295.53c-.47,.05-.95-.08-1.31-.42-5.68-5.26-12.07-3.41-12.14-3.39-.95,.28-1.91-.26-2.12-1.23-.21-.97,.39-1.98,1.35-2.27,.33-.1,8.36-2.42,15.4,4.1,.7,.65,.72,1.8,.03,2.57-.33,.37-.76,.58-1.2,.63Z" style="fill:#263238;"></path></g><g><g><path d="M169.5,312.48c19.34,0,35.02,14.42,35.02,32.23s-15.67,32.23-35.02,32.23-35.09-14.42-35.09-32.23,15.75-32.23,35.09-32.23Z" style="isolation:isolate; opacity:.2;"></path><path d="M163.57,312.48c19.34,0,35.02,14.42,35.02,32.23s-15.67,32.23-35.02,32.23-35.09-14.42-35.09-32.23,15.75-32.23,35.09-32.23Z" style="fill:#407BFF;"></path><ellipse cx="172.99" cy="342.9" rx="5.04" ry="9.39" style="isolation:isolate; opacity:.2;"></ellipse><path d="M156.25,342.9c0,5.18-2.26,9.39-5.04,9.39s-5.04-4.2-5.04-9.39,2.26-9.39,5.04-9.39,5.04,4.2,5.04,9.39Z" style="isolation:isolate; opacity:.2;"></path></g><path d="M163.57,376.93c-18.1,.62-35.65-13.45-35.59-32.23-.07-18.77,17.49-32.86,35.59-32.23-13.16,.24-26.15,7.6-31.79,19.63-10.26,22.33,8.71,44.6,31.79,44.82h0Z" style="fill:#263238;"></path></g><path d="M129.37,412.9s13.26,13.33,38.34,19.47l-3.31,6.87-35.87-13.93,.84-12.41Z" style="isolation:isolate; opacity:.2;"></path><path d="M217.75,356.34c8.15-3.68,12.48-13.95,9.49-22.36-.64-1.81-3.54-1.03-2.89,.8,2.58,7.26-1.1,15.81-8.11,18.97-.74,.34-.91,1.4-.54,2.05,.44,.76,1.32,.87,2.05,.54h0Z" style="fill:#263238;"></path><path d="M104.6,260.46l-1-.76c-4.14,5.43-7.78,11.22-10.87,17.31l1.12,.57c3.06-6.01,6.66-11.74,10.74-17.11Z" style="fill:#407BFF;"></path><path d="M91.08,283.43l-1.16-.5c-1.16,2.66-2.22,5.4-3.15,8.15l1.23,.41c.92-2.73,1.97-5.44,3.08-8.05Z" style="fill:#407BFF;"></path></g></g><g id="freepik--Character--inject-64"><g><g><polygon points="338.16 360.32 338.87 383.55 331.2 384.1 324.9 361.84 338.16 360.32" style="fill:#e9b376;"></polygon><g><path d="M340.03,394.89l-6.63-.05s-1.34-.72-2.12-.63c-.79,.09-3.52,.59-3.52,.59l-17.62-.13c.15-.74,.33-1.39,.53-1.98,.25-.71,.53-1.31,.85-1.82,1.11-1.77,2.6-2.4,4.22-2.49,2.47-.14,10.27-5.26,10.27-5.26l3.32-2.03c-.1-1.12-.28-2.59,.91-3.04,1.53-.57,2.85-.86,3.53,.81l.74,2.01,1.74-.26s3.42-2.28,3.22-.43c-.11,1.06,1.58,5.86,1.15,9.59-.1,.87-.19,1.69-.28,2.41h0c-.18,1.6-.31,2.7-.31,2.7Z" style="fill:#263238;"></path><g style="opacity:.2;"><path d="M310.13,394.67l17.62,.13s2.74-.5,3.52-.59c.79-.09,2.12,.63,2.12,.63l6.64,.05s.13-1.1,.31-2.7l-29.68,.5c-.2,.58-.38,1.24-.53,1.98Z" style="fill:#fff;"></path></g><path d="M322.12,385.02c.08-.08,.21-.09,.3-.02,.43,.29,.8,.71,1.04,1.22,.13,.27-.27,.53-.4,.26-.22-.46-.54-.82-.92-1.08-.13-.09-.15-.26-.04-.37h0Z" style="fill:#407BFF;"></path><path d="M323.52,384.21c.08-.08,.21-.09,.3-.02,.43,.29,.8,.71,1.04,1.22,.13,.27-.27,.53-.4,.26-.22-.46-.54-.82-.92-1.08-.13-.09-.15-.26-.04-.37h0Z" style="fill:#407BFF;"></path><path d="M324.98,383.45c.08-.08,.21-.09,.3-.02,.43,.29,.8,.71,1.04,1.22,.13,.27-.27,.53-.4,.26-.22-.46-.54-.82-.92-1.08-.13-.09-.15-.26-.04-.37h0Z" style="fill:#407BFF;"></path></g></g><g><polygon points="361.7 360.48 364.93 384.2 372.66 384.59 375.16 361.73 361.7 360.48" style="fill:#e9b376;"></polygon><path d="M379.24,395.2h-17.29s-.38-.73,.05-2.66c.07-.3,.15-.63,.26-.99,0-.02,0-.04,.02-.05,.16-.53,.35-1.19,.54-1.9,.79-2.89,1.72-6.68,1.72-6.68,0,0,2.88-6.16,6.24-4.62,2.95,1.35,2.25,5.21,2.25,5.21,0,0,.29,2.27,2.53,4.26,1.38,1.23,2.76,2.19,3.42,3.73,.12,.29,.22,.59,.29,.92,0,.04,.02,.08,.02,.12,.14,.74,.13,1.61-.07,2.66Z" style="fill:#263238;"></path><g style="opacity:.2;"><path d="M362,392.55c-.43,1.93-.05,2.66-.05,2.66h17.29c.2-1.05,.21-1.92,.07-2.66h-17.3Z" style="fill:#fff;"></path></g><path d="M372.35,384.48c-.97-.76-2.25-.66-3.12,.19-.24,.23-.6-.13-.36-.36,1.09-1.06,2.65-1.12,3.84-.19,.26,.2-.1,.56-.36,.36h0Z" style="fill:#407BFF;"></path><path d="M372.83,386.09c-.97-.76-2.25-.66-3.12,.19-.24,.23-.6-.13-.36-.36,1.09-1.06,2.65-1.12,3.84-.19,.26,.2-.1,.56-.36,.36h0Z" style="fill:#407BFF;"></path><path d="M373.32,387.58c-.97-.76-2.25-.66-3.12,.19-.23,.23-.6-.13-.36-.36,1.09-1.06,2.65-1.12,3.84-.19,.26,.2-.1,.56-.36,.36h0Z" style="fill:#407BFF;"></path></g><g><path d="M378.43,210.07l-36.19,.31-22.71-.69s-10.07,70.73-11.43,83.68c-1.35,12.95,16.28,83.61,16.28,83.61h19.03s-10.55-71.5-9.1-78.51c1.26-6.11,9.33-47.22,12.9-57.17,.36,2.04,.73,4.09,1.1,6.12,.9,9.18,3.79,38.44,5.05,49.33,0,0,2.73,62.21,5.91,80.27l16.62,.03c2.19-25.64,3.6-115.72,3.6-115.72h0c1.23-19.57-1.05-51.25-1.05-51.25Z" style="fill:#263238;"></path><g style="opacity:.5;"><path d="M331.47,219.97c-2.11,6.94-7.75,12.51-14.72,14.54-.38,.11-.22,.7,.16,.59,7.17-2.09,12.97-7.82,15.14-14.96,.11-.38-.47-.54-.59-.16h0Z"></path><path d="M347.8,219.97c-.41,6.07-.81,12.15-1.22,18.22-.02,.39-.63,.39-.61,0,.22-3.11,.42-6.24,.63-9.36-1.5,1.16-3.25-.24-3.74-1.79-.8-2.51-.5-5.48,.13-7.99,.1-.38,.69-.22,.59,.16-.44,1.76-.63,3.56-.5,5.37,.06,.92,.15,1.98,.58,2.82,.48,.94,1.69,1.73,2.66,.88,.11-.09,.23-.1,.32-.05,.19-2.75,.37-5.51,.56-8.26,.02-.39,.63-.39,.61,0Z"></path><path d="M365.65,221.01c-.09,8.05,6.11,14.78,14.12,15.42,.38,.03,.38-.57,0-.6-7.68-.61-13.6-7.12-13.52-14.82,0-.39-.59-.39-.6,0h0Z"></path></g></g><g><g><g><g><path d="M339.81,113.96s-2.11-5.83-.8-16.99c0-.01-.6-.17-.61-.18,.18-1.56,.4-3.01,.63-4.28,0-.04,0-.05,0-.05l-13.06,11.43c.91,3.35,.78,10.13,.52,13.03,0,0-1,5.34,5.73,4.44,4.92-.65,7.59-7.41,7.59-7.41Z" style="fill:#e9b376;"></path><path d="M326.53,108.73l8.07-3.29c-.33,2.73-2.12,6.21-7.91,7.43,0,0,.1-3.01-.16-4.15Z" style="opacity:.2;"></path></g><g><path d="M337.97,85.38c.56,9.4,1.06,14.68-3.09,20-6.24,8-18,5.19-21.36-3.87-3.03-8.16-3.43-22.16,5.28-26.89,8.58-4.66,18.61,1.37,19.17,10.76Z" style="fill:#e9b376;"></path><path d="M335.3,72.03c-3.96-5.35-12.3-1.49-15.58,1.57-.49,.46,7.6,3.37,7.12,3.25l2.46,2.34c.35-.12,.82,3.13,1.21,5.94,.36,2.58,1.41,5.01,3.06,7.04,1.38,1.7,3.24,3.75,5.37,5.45,3.06-1.98,2.57-7.67,3.19-11.17,.92-5.21,1.49-15.05-6.83-14.44Z" style="fill:#263238;"></path><path d="M342.6,92.71c-.45,2.49-2.02,4.53-3.76,5.67-2.62,1.72-4.02-1.2-4.11-4.17-.08-2.67,.3-5.99,3.32-6.52,2.97-.52,5.08,2.16,4.56,5.01Z" style="fill:#e9b376;"></path><path d="M324.95,89.69c.12,.95-.3,1.78-.92,1.85-.63,.07-1.23-.65-1.34-1.6-.12-.95,.3-1.78,.92-1.85,.63-.07,1.23,.65,1.34,1.6Z" style="fill:#263238;"></path><path d="M315.61,91.01c.12,.95-.3,1.78-.92,1.85-.63,.07-1.23-.65-1.34-1.6-.12-.95,.3-1.78,.92-1.85,.63-.07,1.23,.65,1.34,1.6Z" style="fill:#263238;"></path><path d="M318.59,90.11s-2.45,5.11-3.18,7.16c1.47,1.04,3.7,.21,3.7,.21l-.51-7.37Z" style="fill:#d58745;"></path><path d="M326.74,84.91c-.14,.08-.31,.08-.46,0-1.73-1.04-3.23-.34-3.25-.34-.22,.11-.49,.01-.6-.21-.11-.22-.01-.49,.21-.6,.08-.04,1.96-.91,4.11,.38,.21,.13,.28,.4,.15,.62-.04,.07-.1,.12-.16,.16Z" style="fill:#263238;"></path><path d="M322.6,100.51c-.19,0-.35-.14-.37-.33-.02-.21,.12-.39,.33-.42,1.26-.14,2.29-.82,3.47-2.26,.13-.16,.37-.18,.53-.05,.16,.13,.18,.37,.05,.53-.92,1.13-2.12,2.32-3.96,2.53-.01,0-.03,0-.04,0Z" style="fill:#263238;"></path></g><path d="M336.24,93.94c-.14,0-.25-.11-.25-.25,0-.86,.21-1.71,.63-2.46,.29-.51,.79-1.17,1.58-1.47,.77-.29,1.66-.11,2.14,.45,.09,.1,.08,.26-.02,.35-.11,.09-.26,.08-.35-.03-.35-.4-1.02-.53-1.59-.31-.65,.24-1.08,.81-1.32,1.25-.38,.67-.58,1.44-.57,2.21,0,.14-.11,.25-.25,.25h0Z" style="opacity:.2;"></path></g><path d="M310.99,87.48c-.09,0-.17-.04-.24-.1-.19-.16-.23-.44-.07-.63,1.55-1.94,3.6-1.74,3.7-1.74,.25,.03,.43,.25,.41,.49-.02,.25-.24,.43-.49,.4-.09-.01-1.67-.15-2.91,1.41-.1,.12-.25,.18-.39,.17Z" style="fill:#263238;"></path></g><path d="M335.3,72.03s-5.24-7.48-15.32-5.84c-8.11,1.32-12.67,6.87-13.22,12.44-.23,2.39,.17,4.22,.72,5.51,.41,.98,1.78,.93,2.16-.06,.11-.28,.23-.56,.37-.83,.03,.07,.06,.13,.09,.19,.51,1.01,2.08,.76,2.19-.37,.03-.36,.1-.71,.2-1.06v.03c.49,.89,1.84,.73,2.12-.24,1.24-4.27,6.76-7.16,11.4-4.89l3.3,2.29c4.11-2.03,6-7.17,6-7.17Z" style="fill:#263238;"></path></g><g><g><path d="M258.27,177.14c.33,.27,41.11-1.61,41.11-1.61l3.82-29.11s17.25,6.47,16.92,6.83c-.33,.36,.05,22.61-4.17,34.18-3.53,9.69-36,5.88-54.42,1.4l-3.27-11.68Z" style="fill:#d58745;"></path><path d="M308.91,121.22c7.91,.07,12.02,13.33,12.37,47.76l-22.03-2.25s-.41-15.21-.48-25.67c1.26-17.96,10.14-19.84,10.14-19.84Z" style="fill:#263238;"></path><path d="M308.91,121.22c7.91,.07,12.02,13.33,12.37,47.76l-22.03-2.25s-.41-15.21-.48-25.67c1.26-17.96,10.14-19.84,10.14-19.84Z" style="fill:#fff; opacity:.5;"></path><path d="M312.17,119.86c4.9-1.36,24.27-7.21,45.41-7.43l16.51,72.38s3.43,14.28,5.04,25.48c-19.47,12.69-47.25,16.03-62.54,10.47,.22,.3-.71-8.37-2.03-21.09-2.31-22.41-5.82-57.37-6.38-77.84,0-.51,3.5-1.83,3.99-1.96Z" style="fill:#263238;"></path><polygon points="311.1 164.4 309.06 139.03 307.19 167.54 311.48 167.98 311.1 164.4" style="isolation:isolate; opacity:.2;"></polygon><path d="M312.17,119.86c4.9-1.36,24.27-7.21,45.41-7.43l16.51,72.38s3.43,14.28,5.04,25.48c-19.47,12.69-47.25,16.03-62.54,10.47,.22,.3-.71-8.37-2.03-21.09-2.31-22.41-5.82-57.37-6.38-77.84,0-.51,3.5-1.83,3.99-1.96Z" style="fill:#fff; opacity:.5;"></path></g><polygon points="338.71 106.97 330.09 115.61 326.26 112.26 322.42 116.86 330.09 125 343.37 113.35 338.71 106.97" style="fill:#263238;"></polygon><polygon points="338.71 106.97 330.09 115.61 326.26 112.26 322.42 116.86 330.09 125 343.37 113.35 338.71 106.97" style="fill:#fff; opacity:.7;"></polygon><g><g><circle cx="283.97" cy="172.71" r="26.67" transform="translate(-37.39 257.54) rotate(-46.1)" style="fill:#407BFF;"></circle><circle cx="283.97" cy="172.71" r="26.67" transform="translate(-37.39 257.54) rotate(-46.1)" style="opacity:.3;"></circle><circle cx="282.07" cy="172.03" r="26.67" transform="translate(108.47 453.14) rotate(-89.68)" style="fill:#407BFF;"></circle><circle cx="282.07" cy="172.03" r="22.16" transform="translate(-45.1 126.02) rotate(-23.37)" style="fill:#fff;"></circle><path d="M279.45,190.83l.72-5.21c.1,.01,.21,.03,.31,.04l-.59,5.23c-.15-.02-.29-.04-.44-.05Zm-8.08-3.12c-.12-.08-.24-.17-.36-.25l3.07-4.27c.08,.06,.17,.12,.25,.18l-2.97,4.34Zm17.11,2.19l-1.78-4.95,.31-.11,1.88,4.91c-.13,.05-.27,.1-.4,.15Zm-23.17-8.95c-.07-.13-.14-.26-.2-.39l4.7-2.36,.15,.28-4.64,2.47Zm30.73,3.93l-3.88-3.56,.21-.24,4.01,3.41-.09,.1c-.06,.07-.16,.18-.25,.28Zm-32.95-12.73c0-.15,0-.29,0-.44l5.26,.08c0,.1,0,.21,0,.31l-5.26,.04Zm32.25,3.36c.03-.1,.05-.19,.07-.29l5.12,1.21c-.03,.15-.07,.29-.11,.44l-5.08-1.36Zm-25.46-9.78l-4.67-2.43,.2-.37,4.62,2.51-.16,.29Zm25.56,3.22l-.08-.31,5.1-1.28c.03,.14,.07,.28,.1,.42l-5.13,1.17Zm-21.23-8.17l-3.02-4.31c.12-.08,.23-.16,.35-.24l2.94,4.36-.27,.19Zm18.28,2.31c-.07-.08-.13-.15-.2-.23l3.9-3.53c.1,.11,.2,.22,.29,.33l-4,3.42Zm-12.15-4.67l-.67-5.22c.15-.02,.3-.04,.45-.05l.52,5.24c-.1,0-.2,.02-.3,.03Zm6.81,.86l-.29-.11,1.83-4.93c.14,.05,.27,.1,.41,.16l-1.95,4.89Z"></path></g><g><path d="M282.19,173.43c-.1,0-.19-.03-.28-.08l-8.75-5.84c-.23-.15-.29-.46-.14-.69,.15-.23,.46-.29,.69-.14l8.22,5.48,3.8-10.64c.09-.26,.38-.4,.64-.3,.26,.09,.4,.38,.3,.64l-4.02,11.24c-.05,.15-.17,.26-.31,.31-.05,.02-.1,.03-.16,.03Z"></path><path d="M283.76,172.62c-.24,.88-1.15,1.4-2.03,1.17-.88-.24-1.4-1.15-1.17-2.03,.24-.88,1.15-1.4,2.03-1.17,.88,.24,1.4,1.15,1.17,2.03Z"></path></g></g></g><path d="M262.51,165.74c4.13-11.52,16.82-17.51,28.34-13.38,2.83,1.01,5.32,2.55,7.42,4.45-2.34-2.52-5.29-4.55-8.75-5.79-11.52-4.13-24.21,1.86-28.34,13.38-3.11,8.69-.47,18.04,5.96,23.88-5.44-5.87-7.51-14.49-4.63-22.54Z" style="opacity:.3;"></path><g><path d="M255.82,176.75s10.94,.33,12.34,2.15c1.4,1.82-1.83,2.39-1.83,2.39,0,0,3.6-.4,3.98,1.11,.45,1.81-2.94,2.38-2.94,2.38,0,0,2.95-.21,3.2,1.16,.25,1.41-3.53,2.33-3.53,2.33,0,0,2.11,.25,1.74,1.29-.37,1.04-8.36,3.15-11.07,2.17-2.71-.98-5.04-11.33-5.09-13.7s.28-3.98,2.73-4.99l.48,3.71h0Z" style="fill:#e9b376;"></path><path d="M266.36,181.46h-.01l-6.31,.4c-.08,0-.16-.07-.17-.16,0-.1,.06-.18,.14-.18l6.31-.4c.08,0,.16,.07,.17,.16,0,.09-.05,.17-.12,.18Z" style="opacity:.2;"></path><path d="M267.22,184.98h0l-6.03,.86c-.08,.01-.16-.06-.18-.15-.01-.1,.03-.16,.13-.19l6.03-.86c.08-.01,.16,.06,.18,.15,.01,.09-.04,.18-.12,.19Z" style="opacity:.2;"></path><path d="M266.86,188.47l-4.46,.77c-.08,.01-.16-.05-.18-.15-.02-.09,.04-.18,.12-.2l4.46-.77c.08-.01,.16,.05,.18,.15,.02,.09-.04,.18-.12,.2Z" style="opacity:.2;"></path></g><g><g><path d="M315.84,174.58s-3.18-2.62-6.57-2.26c-3.39,.37-6.19-.24-8.69,.2-2.5,.45,.45,2.2,2.2,2.81,1.76,.61,3.74,1.33,3.07,2.57-.67,1.24-11.03,7.64-11.77,9.48-.74,1.83,1.26,1.32,1.26,1.32,0,0-2.47,1.62-2.1,2.78,.1,.3,.81,.84,2.05,.28,2.8-1.27,8.53-4.22,8.53-4.22-.33,.16-7.15,4.32-8.09,5.08-1.23,.99-1.3,2.08-.71,2.77,.85,.99,9.47-3.88,9.98-3.83,0,0-5.06,2.64-5.09,4.31-.03,1.68,3.24,.19,5.88-1.66,2.42-1.7,7.61-4.41,9.9-6.38,2.82-2.43,4.17-4.69,3.2-8.04-.98-3.35-3.06-5.2-3.06-5.2Z" style="fill:#e9b376;"></path><path d="M295.62,188.56s-.08-.02-.11-.06c-.04-.06-.02-.14,.04-.17,2.01-1.24,4.1-2.41,6.22-3.48,.06-.03,.14,0,.17,.06,.03,.06,0,.14-.06,.17-2.11,1.06-4.2,2.22-6.2,3.47-.02,.01-.04,.02-.07,.02Z" style="opacity:.3;"></path></g><g><path d="M353.45,150.83l-.93,16.9-36.95,6.52,1.84,12.76c-13.6,.99,41.81-.6,48.7-3.06,6.01-2.14,4.45-33.65,4.45-33.65l-17.1,.52Z" style="fill:#e9b376;"></path><path d="M357.58,112.42s13.81,.68,14.37,11.08c.52,9.57,.65,32.89,.65,32.89l-20.6-.14-.77-24.82,6.35-19.01Z" style="fill:#263238;"></path><path d="M357.58,112.42s13.81,.68,14.37,11.08c.52,9.57,.65,32.89,.65,32.89l-20.6-.14-.77-24.82,6.35-19.01Z" style="fill:#fff; opacity:.5;"></path></g></g></g><g><rect x="304.1" y="400.53" width="6.75" height="45.99" style="fill:#263238;"></rect><rect x="346.09" y="400.53" width="6.75" height="45.99" style="fill:#263238;"></rect><rect x="376.53" y="400.53" width="6.75" height="45.99" style="fill:#263238;"></rect><rect x="333.04" y="400.53" width="6.75" height="45.99" style="fill:#263238;"></rect><rect x="300.5" y="393.03" width="84.58" height="9.49" style="fill:#263238;"></rect></g></g></svg>
